<svg xmlns="http://www.w3.org/2000/svg" xmlns:xlink="http://www.w3.org/1999/xlink" width="500" zoomAndPan="magnify" viewBox="0 0 375 374.999991" height="500" preserveAspectRatio="xMidYMid meet" version="1.2"><defs><clipPath id="8e351879b8"><path d="M 100.925781 108.683594 L 274.074219 108.683594 L 274.074219 127.328125 L 100.925781 127.328125 Z M 100.925781 108.683594 "/></clipPath><clipPath id="54ff28bb0c"><path d="M 100.925781 138.847656 L 178.976562 138.847656 L 178.976562 157.492188 L 100.925781 157.492188 Z M 100.925781 138.847656 "/></clipPath><clipPath id="b699f59520"><path d="M 160.277344 138.84375 L 178.925781 138.84375 L 178.925781 266.253906 L 160.277344 266.253906 Z M 160.277344 138.84375 "/></clipPath><clipPath id="a076cb6ebe"><path d="M 196.023438 138.847656 L 274.074219 138.847656 L 274.074219 157.492188 L 196.023438 157.492188 Z M 196.023438 138.847656 "/></clipPath><clipPath id="59cea43d28"><path d="M 196.023438 138.902344 L 214.671875 138.902344 L 214.671875 266.3125 L 196.023438 266.3125 Z M 196.023438 138.902344 "/></clipPath></defs><g id="5b52d522a7"><g clip-rule="nonzero" clip-path="url(#8e351879b8)"><path style=" stroke:none;fill-rule:nonzero;fill:#2b5389;fill-opacity:1;" d="M 100.925781 108.683594 L 274.066406 108.683594 L 274.066406 127.328125 L 100.925781 127.328125 Z M 100.925781 108.683594 "/></g><g clip-rule="nonzero" clip-path="url(#54ff28bb0c)"><path style=" stroke:none;fill-rule:nonzero;fill:#2b5389;fill-opacity:1;" d="M 100.925781 138.847656 L 179.011719 138.847656 L 179.011719 157.492188 L 100.925781 157.492188 Z M 100.925781 138.847656 "/></g><g clip-rule="nonzero" clip-path="url(#b699f59520)"><path style=" stroke:none;fill-rule:nonzero;fill:#2b5389;fill-opacity:1;" d="M 160.277344 266.253906 L 160.277344 138.855469 L 178.925781 138.855469 L 178.925781 266.253906 Z M 160.277344 266.253906 "/></g><g clip-rule="nonzero" clip-path="url(#a076cb6ebe)"><path style=" stroke:none;fill-rule:nonzero;fill:#5271ff;fill-opacity:1;" d="M 196.023438 138.847656 L 274.109375 138.847656 L 274.109375 157.492188 L 196.023438 157.492188 Z M 196.023438 138.847656 "/></g><g clip-rule="nonzero" clip-path="url(#59cea43d28)"><path style=" stroke:none;fill-rule:nonzero;fill:#5271ff;fill-opacity:1;" d="M 196.023438 266.3125 L 196.023438 138.914062 L 214.671875 138.914062 L 214.671875 266.3125 Z M 196.023438 266.3125 "/></g></g></svg>