<svg xmlns="http://www.w3.org/2000/svg" xmlns:xlink="http://www.w3.org/1999/xlink" width="500" zoomAndPan="magnify" viewBox="0 0 375 374.999991" height="500" preserveAspectRatio="xMidYMid meet" version="1.2"><defs><clipPath id="6abaf1da0d"><path d="M 100.933594 87.507812 L 274.082031 87.507812 L 274.082031 106.15625 L 100.933594 106.15625 Z M 100.933594 87.507812 "/></clipPath><clipPath id="74b9dc68c5"><path d="M 100.933594 117.675781 L 178.980469 117.675781 L 178.980469 136.320312 L 100.933594 136.320312 Z M 100.933594 117.675781 "/></clipPath><clipPath id="4ce38d1d3b"><path d="M 160.285156 117.667969 L 178.933594 117.667969 L 178.933594 245.082031 L 160.285156 245.082031 Z M 160.285156 117.667969 "/></clipPath><clipPath id="a1020d17f5"><path d="M 196.03125 117.675781 L 274.082031 117.675781 L 274.082031 136.320312 L 196.03125 136.320312 Z M 196.03125 117.675781 "/></clipPath><clipPath id="ae8ce12a31"><path d="M 196.03125 117.730469 L 214.679688 117.730469 L 214.679688 245.140625 L 196.03125 245.140625 Z M 196.03125 117.730469 "/></clipPath></defs><g id="ece464c069"><g style="fill:#ffffff;fill-opacity:1;"><g transform="translate(93.617205, 283.276632)"><path style="stroke:none" d="M 18.90625 -17.40625 L 12.3125 -17.40625 L 12.3125 0 L 6.75 0 L 6.75 -17.40625 L 0.21875 -17.40625 L 0.21875 -21.90625 L 18.90625 -21.90625 Z M 18.90625 -17.40625 "/></g></g><g style="fill:#ffffff;fill-opacity:1;"><g transform="translate(114.295656, 283.276632)"><path style="stroke:none" d="M 15.375 0 L 12.125 -6.15625 L 7.75 -6.15625 L 7.75 0 L 2.1875 0 L 2.1875 -21.875 L 11.96875 -21.875 C 14.863281 -21.875 17.101562 -21.210938 18.6875 -19.890625 C 20.269531 -18.566406 21.0625 -16.6875 21.0625 -14.25 C 21.0625 -10.875 19.738281 -8.53125 17.09375 -7.21875 L 21.6875 0 Z M 7.75 -10.53125 L 11.96875 -10.53125 C 13.175781 -10.53125 14.113281 -10.832031 14.78125 -11.4375 C 15.445312 -12.039062 15.78125 -12.914062 15.78125 -14.0625 C 15.78125 -15.1875 15.445312 -16.039062 14.78125 -16.625 C 14.113281 -17.207031 13.175781 -17.5 11.96875 -17.5 L 7.75 -17.5 Z M 7.75 -10.53125 "/></g></g><g style="fill:#ffffff;fill-opacity:1;"><g transform="translate(138.503698, 283.276632)"><path style="stroke:none" d="M 16.71875 -4.03125 L 7.15625 -4.03125 L 5.5625 0 L -0.15625 0 L 9.28125 -21.875 L 15 -21.875 L 24.21875 0 L 18.28125 0 Z M 15.09375 -8.25 L 11.96875 -16.34375 L 8.78125 -8.25 Z M 15.09375 -8.25 "/></g></g><g style="fill:#ffffff;fill-opacity:1;"><g transform="translate(164.148576, 283.276632)"><path style="stroke:none" d="M 22.375 0 L 17.46875 0 L 7.40625 -13.46875 L 7.40625 0 L 2.1875 0 L 2.1875 -21.875 L 7.09375 -21.875 L 17.1875 -8.375 L 17.1875 -21.875 L 22.375 -21.875 Z M 22.375 0 "/></g></g><g style="fill:#ffffff;fill-opacity:1;"><g transform="translate(190.293222, 283.276632)"><path style="stroke:none" d="M 18.90625 -17.40625 L 12.3125 -17.40625 L 12.3125 0 L 6.75 0 L 6.75 -17.40625 L 0.21875 -17.40625 L 0.21875 -21.90625 L 18.90625 -21.90625 Z M 18.90625 -17.40625 "/></g></g><g style="fill:#ffffff;fill-opacity:1;"><g transform="translate(210.971673, 283.276632)"><path style="stroke:none" d="M 19.3125 -17.5 L 7.75 -17.5 L 7.75 -13.15625 L 18.1875 -13.15625 L 18.1875 -8.78125 L 7.75 -8.78125 L 7.75 -4.375 L 19.65625 -4.375 L 19.65625 0 L 2.1875 0 L 2.1875 -21.875 L 19.3125 -21.875 Z M 19.3125 -17.5 "/></g></g><g style="fill:#ffffff;fill-opacity:1;"><g transform="translate(233.617947, 283.276632)"><path style="stroke:none" d="M 12.4375 -22.0625 C 14.0625 -22.0625 15.660156 -21.726562 17.234375 -21.0625 C 18.804688 -20.394531 20.144531 -19.5 21.25 -18.375 L 18.03125 -14.5625 C 17.320312 -15.4375 16.472656 -16.128906 15.484375 -16.640625 C 14.492188 -17.148438 13.507812 -17.40625 12.53125 -17.40625 C 10.800781 -17.40625 9.351562 -16.796875 8.1875 -15.578125 C 7.019531 -14.359375 6.4375 -12.851562 6.4375 -11.0625 C 6.4375 -9.226562 7.019531 -7.695312 8.1875 -6.46875 C 9.351562 -5.238281 10.800781 -4.625 12.53125 -4.625 C 13.445312 -4.625 14.398438 -4.851562 15.390625 -5.3125 C 16.378906 -5.769531 17.257812 -6.394531 18.03125 -7.1875 L 21.28125 -3.75 C 20.09375 -2.539062 18.691406 -1.570312 17.078125 -0.84375 C 15.460938 -0.113281 13.851562 0.25 12.25 0.25 C 8.957031 0.25 6.21875 -0.820312 4.03125 -2.96875 C 1.84375 -5.113281 0.75 -7.789062 0.75 -11 C 0.75 -14.144531 1.863281 -16.773438 4.09375 -18.890625 C 6.320312 -21.003906 9.101562 -22.0625 12.4375 -22.0625 Z M 12.4375 -22.0625 "/></g></g><g style="fill:#ffffff;fill-opacity:1;"><g transform="translate(256.826463, 283.276632)"><path style="stroke:none" d="M 22.375 0 L 16.8125 0 L 16.8125 -8.5 L 7.75 -8.5 L 7.75 0 L 2.1875 0 L 2.1875 -21.875 L 7.75 -21.875 L 7.75 -12.875 L 16.8125 -12.875 L 16.8125 -21.875 L 22.375 -21.875 Z M 22.375 0 "/></g></g><g style="fill:#ffffff;fill-opacity:1;"><g transform="translate(144.695027, 302.949386)"><path style="stroke:none" d="M 3.34375 -3.625 C 2.425781 -3.894531 1.753906 -4.222656 1.328125 -4.609375 C 0.910156 -4.992188 0.703125 -5.46875 0.703125 -6.03125 C 0.703125 -6.675781 0.957031 -7.207031 1.46875 -7.625 C 1.988281 -8.039062 2.65625 -8.25 3.46875 -8.25 C 4.03125 -8.25 4.53125 -8.140625 4.96875 -7.921875 C 5.40625 -7.710938 5.742188 -7.414062 5.984375 -7.03125 C 6.222656 -6.65625 6.34375 -6.238281 6.34375 -5.78125 L 5.265625 -5.78125 C 5.265625 -6.28125 5.109375 -6.671875 4.796875 -6.953125 C 4.484375 -7.234375 4.039062 -7.375 3.46875 -7.375 C 2.9375 -7.375 2.523438 -7.253906 2.234375 -7.015625 C 1.941406 -6.785156 1.796875 -6.460938 1.796875 -6.046875 C 1.796875 -5.710938 1.9375 -5.429688 2.21875 -5.203125 C 2.5 -4.972656 2.972656 -4.765625 3.640625 -4.578125 C 4.316406 -4.390625 4.847656 -4.179688 5.234375 -3.953125 C 5.617188 -3.722656 5.898438 -3.453125 6.078125 -3.140625 C 6.265625 -2.835938 6.359375 -2.476562 6.359375 -2.0625 C 6.359375 -1.40625 6.101562 -0.878906 5.59375 -0.484375 C 5.082031 -0.0859375 4.394531 0.109375 3.53125 0.109375 C 2.96875 0.109375 2.441406 0.00390625 1.953125 -0.203125 C 1.472656 -0.421875 1.101562 -0.71875 0.84375 -1.09375 C 0.582031 -1.46875 0.453125 -1.890625 0.453125 -2.359375 L 1.53125 -2.359375 C 1.53125 -1.867188 1.710938 -1.476562 2.078125 -1.1875 C 2.441406 -0.90625 2.925781 -0.765625 3.53125 -0.765625 C 4.09375 -0.765625 4.523438 -0.878906 4.828125 -1.109375 C 5.128906 -1.335938 5.28125 -1.648438 5.28125 -2.046875 C 5.28125 -2.453125 5.140625 -2.765625 4.859375 -2.984375 C 4.585938 -3.203125 4.082031 -3.414062 3.34375 -3.625 Z M 3.34375 -3.625 "/></g></g><g style="fill:#ffffff;fill-opacity:1;"><g transform="translate(154.558286, 302.949386)"><path style="stroke:none" d="M 7.203125 -3.8125 C 7.203125 -3.007812 7.066406 -2.3125 6.796875 -1.71875 C 6.535156 -1.125 6.15625 -0.671875 5.65625 -0.359375 C 5.164062 -0.046875 4.59375 0.109375 3.9375 0.109375 C 3.300781 0.109375 2.734375 -0.046875 2.234375 -0.359375 C 1.742188 -0.671875 1.359375 -1.117188 1.078125 -1.703125 C 0.804688 -2.285156 0.664062 -2.960938 0.65625 -3.734375 L 0.65625 -4.328125 C 0.65625 -5.109375 0.789062 -5.796875 1.0625 -6.390625 C 1.332031 -6.992188 1.71875 -7.453125 2.21875 -7.765625 C 2.71875 -8.085938 3.289062 -8.25 3.9375 -8.25 C 4.582031 -8.25 5.15625 -8.09375 5.65625 -7.78125 C 6.15625 -7.46875 6.535156 -7.007812 6.796875 -6.40625 C 7.066406 -5.8125 7.203125 -5.117188 7.203125 -4.328125 Z M 6.140625 -4.328125 C 6.140625 -5.296875 5.945312 -6.035156 5.5625 -6.546875 C 5.175781 -7.066406 4.632812 -7.328125 3.9375 -7.328125 C 3.25 -7.328125 2.710938 -7.066406 2.328125 -6.546875 C 1.941406 -6.035156 1.742188 -5.320312 1.734375 -4.40625 L 1.734375 -3.8125 C 1.734375 -2.875 1.925781 -2.132812 2.3125 -1.59375 C 2.707031 -1.0625 3.25 -0.796875 3.9375 -0.796875 C 4.632812 -0.796875 5.171875 -1.046875 5.546875 -1.546875 C 5.929688 -2.054688 6.128906 -2.785156 6.140625 -3.734375 Z M 6.140625 -4.328125 "/></g></g><g style="fill:#ffffff;fill-opacity:1;"><g transform="translate(165.50045, 302.949386)"><path style="stroke:none" d="M 2.03125 -0.875 L 5.890625 -0.875 L 5.890625 0 L 0.9375 0 L 0.9375 -8.140625 L 2.03125 -8.140625 Z M 2.03125 -0.875 "/></g></g><g style="fill:#ffffff;fill-opacity:1;"><g transform="translate(174.732019, 302.949386)"><path style="stroke:none" d="M 6.671875 -8.140625 L 6.671875 -2.609375 C 6.671875 -1.835938 6.429688 -1.207031 5.953125 -0.71875 C 5.472656 -0.226562 4.820312 0.0390625 4 0.09375 L 3.71875 0.109375 C 2.820312 0.109375 2.109375 -0.128906 1.578125 -0.609375 C 1.054688 -1.085938 0.789062 -1.75 0.78125 -2.59375 L 0.78125 -8.140625 L 1.84375 -8.140625 L 1.84375 -2.625 C 1.84375 -2.039062 2.003906 -1.582031 2.328125 -1.25 C 2.648438 -0.925781 3.113281 -0.765625 3.71875 -0.765625 C 4.320312 -0.765625 4.785156 -0.925781 5.109375 -1.25 C 5.429688 -1.570312 5.59375 -2.03125 5.59375 -2.625 L 5.59375 -8.140625 Z M 6.671875 -8.140625 "/></g></g><g style="fill:#ffffff;fill-opacity:1;"><g transform="translate(185.226969, 302.949386)"><path style="stroke:none" d="M 6.578125 -7.265625 L 3.953125 -7.265625 L 3.953125 0 L 2.890625 0 L 2.890625 -7.265625 L 0.28125 -7.265625 L 0.28125 -8.140625 L 6.578125 -8.140625 Z M 6.578125 -7.265625 "/></g></g><g style="fill:#ffffff;fill-opacity:1;"><g transform="translate(195.129359, 302.949386)"><path style="stroke:none" d="M 2.09375 0 L 1.015625 0 L 1.015625 -8.140625 L 2.09375 -8.140625 Z M 2.09375 0 "/></g></g><g style="fill:#ffffff;fill-opacity:1;"><g transform="translate(201.314282, 302.949386)"><path style="stroke:none" d="M 7.203125 -3.8125 C 7.203125 -3.007812 7.066406 -2.3125 6.796875 -1.71875 C 6.535156 -1.125 6.15625 -0.671875 5.65625 -0.359375 C 5.164062 -0.046875 4.59375 0.109375 3.9375 0.109375 C 3.300781 0.109375 2.734375 -0.046875 2.234375 -0.359375 C 1.742188 -0.671875 1.359375 -1.117188 1.078125 -1.703125 C 0.804688 -2.285156 0.664062 -2.960938 0.65625 -3.734375 L 0.65625 -4.328125 C 0.65625 -5.109375 0.789062 -5.796875 1.0625 -6.390625 C 1.332031 -6.992188 1.71875 -7.453125 2.21875 -7.765625 C 2.71875 -8.085938 3.289062 -8.25 3.9375 -8.25 C 4.582031 -8.25 5.15625 -8.09375 5.65625 -7.78125 C 6.15625 -7.46875 6.535156 -7.007812 6.796875 -6.40625 C 7.066406 -5.8125 7.203125 -5.117188 7.203125 -4.328125 Z M 6.140625 -4.328125 C 6.140625 -5.296875 5.945312 -6.035156 5.5625 -6.546875 C 5.175781 -7.066406 4.632812 -7.328125 3.9375 -7.328125 C 3.25 -7.328125 2.710938 -7.066406 2.328125 -6.546875 C 1.941406 -6.035156 1.742188 -5.320312 1.734375 -4.40625 L 1.734375 -3.8125 C 1.734375 -2.875 1.925781 -2.132812 2.3125 -1.59375 C 2.707031 -1.0625 3.25 -0.796875 3.9375 -0.796875 C 4.632812 -0.796875 5.171875 -1.046875 5.546875 -1.546875 C 5.929688 -2.054688 6.128906 -2.785156 6.140625 -3.734375 Z M 6.140625 -4.328125 "/></g></g><g style="fill:#ffffff;fill-opacity:1;"><g transform="translate(212.256446, 302.949386)"><path style="stroke:none" d="M 7.203125 0 L 6.125 0 L 2.03125 -6.28125 L 2.03125 0 L 0.9375 0 L 0.9375 -8.140625 L 2.03125 -8.140625 L 6.140625 -1.84375 L 6.140625 -8.140625 L 7.203125 -8.140625 Z M 7.203125 0 "/></g></g><g style="fill:#ffffff;fill-opacity:1;"><g transform="translate(223.489298, 302.949386)"><path style="stroke:none" d="M 3.34375 -3.625 C 2.425781 -3.894531 1.753906 -4.222656 1.328125 -4.609375 C 0.910156 -4.992188 0.703125 -5.46875 0.703125 -6.03125 C 0.703125 -6.675781 0.957031 -7.207031 1.46875 -7.625 C 1.988281 -8.039062 2.65625 -8.25 3.46875 -8.25 C 4.03125 -8.25 4.53125 -8.140625 4.96875 -7.921875 C 5.40625 -7.710938 5.742188 -7.414062 5.984375 -7.03125 C 6.222656 -6.65625 6.34375 -6.238281 6.34375 -5.78125 L 5.265625 -5.78125 C 5.265625 -6.28125 5.109375 -6.671875 4.796875 -6.953125 C 4.484375 -7.234375 4.039062 -7.375 3.46875 -7.375 C 2.9375 -7.375 2.523438 -7.253906 2.234375 -7.015625 C 1.941406 -6.785156 1.796875 -6.460938 1.796875 -6.046875 C 1.796875 -5.710938 1.9375 -5.429688 2.21875 -5.203125 C 2.5 -4.972656 2.972656 -4.765625 3.640625 -4.578125 C 4.316406 -4.390625 4.847656 -4.179688 5.234375 -3.953125 C 5.617188 -3.722656 5.898438 -3.453125 6.078125 -3.140625 C 6.265625 -2.835938 6.359375 -2.476562 6.359375 -2.0625 C 6.359375 -1.40625 6.101562 -0.878906 5.59375 -0.484375 C 5.082031 -0.0859375 4.394531 0.109375 3.53125 0.109375 C 2.96875 0.109375 2.441406 0.00390625 1.953125 -0.203125 C 1.472656 -0.421875 1.101562 -0.71875 0.84375 -1.09375 C 0.582031 -1.46875 0.453125 -1.890625 0.453125 -2.359375 L 1.53125 -2.359375 C 1.53125 -1.867188 1.710938 -1.476562 2.078125 -1.1875 C 2.441406 -0.90625 2.925781 -0.765625 3.53125 -0.765625 C 4.09375 -0.765625 4.523438 -0.878906 4.828125 -1.109375 C 5.128906 -1.335938 5.28125 -1.648438 5.28125 -2.046875 C 5.28125 -2.453125 5.140625 -2.765625 4.859375 -2.984375 C 4.585938 -3.203125 4.082031 -3.414062 3.34375 -3.625 Z M 3.34375 -3.625 "/></g></g><g clip-rule="nonzero" clip-path="url(#6abaf1da0d)"><path style=" stroke:none;fill-rule:nonzero;fill:#ffffff;fill-opacity:1;" d="M 100.933594 87.507812 L 274.074219 87.507812 L 274.074219 106.15625 L 100.933594 106.15625 Z M 100.933594 87.507812 "/></g><g clip-rule="nonzero" clip-path="url(#74b9dc68c5)"><path style=" stroke:none;fill-rule:nonzero;fill:#ffffff;fill-opacity:1;" d="M 100.933594 117.675781 L 179.019531 117.675781 L 179.019531 136.320312 L 100.933594 136.320312 Z M 100.933594 117.675781 "/></g><g clip-rule="nonzero" clip-path="url(#4ce38d1d3b)"><path style=" stroke:none;fill-rule:nonzero;fill:#ffffff;fill-opacity:1;" d="M 160.285156 245.082031 L 160.285156 117.683594 L 178.933594 117.683594 L 178.933594 245.082031 Z M 160.285156 245.082031 "/></g><g clip-rule="nonzero" clip-path="url(#a1020d17f5)"><path style=" stroke:none;fill-rule:nonzero;fill:#ffffff;fill-opacity:1;" d="M 196.03125 117.675781 L 274.117188 117.675781 L 274.117188 136.320312 L 196.03125 136.320312 Z M 196.03125 117.675781 "/></g><g clip-rule="nonzero" clip-path="url(#ae8ce12a31)"><path style=" stroke:none;fill-rule:nonzero;fill:#ffffff;fill-opacity:1;" d="M 196.03125 245.140625 L 196.03125 117.742188 L 214.679688 117.742188 L 214.679688 245.140625 Z M 196.03125 245.140625 "/></g></g></svg>