<svg xmlns="http://www.w3.org/2000/svg" xmlns:xlink="http://www.w3.org/1999/xlink" width="400" zoomAndPan="magnify" viewBox="0 0 300 74.999997" height="100" preserveAspectRatio="xMidYMid meet" version="1.2"><defs><clipPath id="3c6489b06d"><path d="M 14.402344 19.152344 L 63.039062 19.152344 L 63.039062 24.390625 L 14.402344 24.390625 Z M 14.402344 19.152344 "/></clipPath><clipPath id="4f86186788"><path d="M 14.402344 27.625 L 36.328125 27.625 L 36.328125 32.863281 L 14.402344 32.863281 Z M 14.402344 27.625 "/></clipPath><clipPath id="0255415afc"><path d="M 31.078125 27.621094 L 36.316406 27.621094 L 36.316406 63.410156 L 31.078125 63.410156 Z M 31.078125 27.621094 "/></clipPath><clipPath id="0c846db7e4"><path d="M 41.117188 27.625 L 63.039062 27.625 L 63.039062 32.863281 L 41.117188 32.863281 Z M 41.117188 27.625 "/></clipPath><clipPath id="0e20167598"><path d="M 41.121094 27.636719 L 46.359375 27.636719 L 46.359375 63.425781 L 41.121094 63.425781 Z M 41.121094 27.636719 "/></clipPath></defs><g id="03707ae117"><g clip-rule="nonzero" clip-path="url(#3c6489b06d)"><path style=" stroke:none;fill-rule:nonzero;fill:#161718;fill-opacity:1;" d="M 14.402344 19.152344 L 63.039062 19.152344 L 63.039062 24.390625 L 14.402344 24.390625 Z M 14.402344 19.152344 "/></g><g clip-rule="nonzero" clip-path="url(#4f86186788)"><path style=" stroke:none;fill-rule:nonzero;fill:#161718;fill-opacity:1;" d="M 14.402344 27.625 L 36.335938 27.625 L 36.335938 32.863281 L 14.402344 32.863281 Z M 14.402344 27.625 "/></g><g clip-rule="nonzero" clip-path="url(#0255415afc)"><path style=" stroke:none;fill-rule:nonzero;fill:#161718;fill-opacity:1;" d="M 31.078125 63.410156 L 31.078125 27.625 L 36.316406 27.625 L 36.316406 63.410156 Z M 31.078125 63.410156 "/></g><g clip-rule="nonzero" clip-path="url(#0c846db7e4)"><path style=" stroke:none;fill-rule:nonzero;fill:#161718;fill-opacity:1;" d="M 41.117188 27.625 L 63.050781 27.625 L 63.050781 32.863281 L 41.117188 32.863281 Z M 41.117188 27.625 "/></g><g clip-rule="nonzero" clip-path="url(#0e20167598)"><path style=" stroke:none;fill-rule:nonzero;fill:#161718;fill-opacity:1;" d="M 41.121094 63.425781 L 41.121094 27.640625 L 46.359375 27.640625 L 46.359375 63.425781 Z M 41.121094 63.425781 "/></g><g style="fill:#161718;fill-opacity:1;"><g transform="translate(81.698287, 45.534791)"><path style="stroke:none" d="M 19.5 -17.953125 L 12.703125 -17.953125 L 12.703125 0 L 6.96875 0 L 6.96875 -17.953125 L 0.21875 -17.953125 L 0.21875 -22.59375 L 19.5 -22.59375 Z M 19.5 -17.953125 "/></g></g><g style="fill:#161718;fill-opacity:1;"><g transform="translate(103.038536, 45.534791)"><path style="stroke:none" d="M 15.859375 0 L 12.5 -6.34375 L 8 -6.34375 L 8 0 L 2.25 0 L 2.25 -22.5625 L 12.34375 -22.5625 C 15.332031 -22.5625 17.640625 -21.878906 19.265625 -20.515625 C 20.898438 -19.148438 21.71875 -17.210938 21.71875 -14.703125 C 21.71875 -11.222656 20.351562 -8.804688 17.625 -7.453125 L 22.375 0 Z M 8 -10.859375 L 12.34375 -10.859375 C 13.59375 -10.859375 14.5625 -11.171875 15.25 -11.796875 C 15.9375 -12.421875 16.28125 -13.320312 16.28125 -14.5 C 16.28125 -15.664062 15.9375 -16.546875 15.25 -17.140625 C 14.5625 -17.742188 13.59375 -18.046875 12.34375 -18.046875 L 8 -18.046875 Z M 8 -10.859375 "/></g></g><g style="fill:#161718;fill-opacity:1;"><g transform="translate(128.021419, 45.534791)"><path style="stroke:none" d="M 17.25 -4.15625 L 7.375 -4.15625 L 5.734375 0 L -0.15625 0 L 9.578125 -22.5625 L 15.46875 -22.5625 L 24.984375 0 L 18.859375 0 Z M 15.5625 -8.515625 L 12.34375 -16.859375 L 9.0625 -8.515625 Z M 15.5625 -8.515625 "/></g></g><g style="fill:#161718;fill-opacity:1;"><g transform="translate(154.487136, 45.534791)"><path style="stroke:none" d="M 23.078125 0 L 18.015625 0 L 7.640625 -13.890625 L 7.640625 0 L 2.25 0 L 2.25 -22.5625 L 7.3125 -22.5625 L 17.734375 -8.640625 L 17.734375 -22.5625 L 23.078125 -22.5625 Z M 23.078125 0 "/></g></g><g style="fill:#161718;fill-opacity:1;"><g transform="translate(181.468626, 45.534791)"><path style="stroke:none" d="M 19.5 -17.953125 L 12.703125 -17.953125 L 12.703125 0 L 6.96875 0 L 6.96875 -17.953125 L 0.21875 -17.953125 L 0.21875 -22.59375 L 19.5 -22.59375 Z M 19.5 -17.953125 "/></g></g><g style="fill:#161718;fill-opacity:1;"><g transform="translate(202.808875, 45.534791)"><path style="stroke:none" d="M 19.921875 -18.046875 L 8 -18.046875 L 8 -13.578125 L 18.765625 -13.578125 L 18.765625 -9.0625 L 8 -9.0625 L 8 -4.515625 L 20.28125 -4.515625 L 20.28125 0 L 2.25 0 L 2.25 -22.5625 L 19.921875 -22.5625 Z M 19.921875 -18.046875 "/></g></g><g style="fill:#161718;fill-opacity:1;"><g transform="translate(226.179967, 45.534791)"><path style="stroke:none" d="M 12.828125 -22.75 C 14.503906 -22.75 16.15625 -22.40625 17.78125 -21.71875 C 19.40625 -21.03125 20.785156 -20.109375 21.921875 -18.953125 L 18.59375 -15.015625 C 17.863281 -15.921875 16.988281 -16.632812 15.96875 -17.15625 C 14.945312 -17.6875 13.929688 -17.953125 12.921875 -17.953125 C 11.140625 -17.953125 9.644531 -17.320312 8.4375 -16.0625 C 7.238281 -14.8125 6.640625 -13.257812 6.640625 -11.40625 C 6.640625 -9.519531 7.238281 -7.941406 8.4375 -6.671875 C 9.644531 -5.398438 11.140625 -4.765625 12.921875 -4.765625 C 13.867188 -4.765625 14.851562 -5 15.875 -5.46875 C 16.894531 -5.945312 17.800781 -6.59375 18.59375 -7.40625 L 21.953125 -3.875 C 20.722656 -2.625 19.273438 -1.617188 17.609375 -0.859375 C 15.953125 -0.109375 14.296875 0.265625 12.640625 0.265625 C 9.242188 0.265625 6.414062 -0.835938 4.15625 -3.046875 C 1.90625 -5.265625 0.78125 -8.03125 0.78125 -11.34375 C 0.78125 -14.59375 1.925781 -17.304688 4.21875 -19.484375 C 6.519531 -21.660156 9.390625 -22.75 12.828125 -22.75 Z M 12.828125 -22.75 "/></g></g><g style="fill:#161718;fill-opacity:1;"><g transform="translate(250.131304, 45.534791)"><path style="stroke:none" d="M 23.078125 0 L 17.34375 0 L 17.34375 -8.765625 L 8 -8.765625 L 8 0 L 2.25 0 L 2.25 -22.5625 L 8 -22.5625 L 8 -13.28125 L 17.34375 -13.28125 L 17.34375 -22.5625 L 23.078125 -22.5625 Z M 23.078125 0 "/></g></g><g style="fill:#161718;fill-opacity:1;"><g transform="translate(134.421735, 56.935058)"><path style="stroke:none" d="M 3.453125 -3.75 C 2.503906 -4.019531 1.8125 -4.351562 1.375 -4.75 C 0.945312 -5.144531 0.734375 -5.632812 0.734375 -6.21875 C 0.734375 -6.882812 0.992188 -7.429688 1.515625 -7.859375 C 2.046875 -8.296875 2.734375 -8.515625 3.578125 -8.515625 C 4.160156 -8.515625 4.675781 -8.398438 5.125 -8.171875 C 5.570312 -7.953125 5.921875 -7.644531 6.171875 -7.25 C 6.421875 -6.863281 6.546875 -6.4375 6.546875 -5.96875 L 5.4375 -5.96875 C 5.4375 -6.476562 5.273438 -6.878906 4.953125 -7.171875 C 4.628906 -7.460938 4.171875 -7.609375 3.578125 -7.609375 C 3.035156 -7.609375 2.609375 -7.484375 2.296875 -7.234375 C 1.992188 -6.992188 1.84375 -6.660156 1.84375 -6.234375 C 1.84375 -5.898438 1.988281 -5.613281 2.28125 -5.375 C 2.570312 -5.132812 3.066406 -4.914062 3.765625 -4.71875 C 4.460938 -4.53125 5.007812 -4.316406 5.40625 -4.078125 C 5.800781 -3.835938 6.09375 -3.5625 6.28125 -3.25 C 6.46875 -2.9375 6.5625 -2.566406 6.5625 -2.140625 C 6.5625 -1.453125 6.296875 -0.90625 5.765625 -0.5 C 5.234375 -0.09375 4.523438 0.109375 3.640625 0.109375 C 3.066406 0.109375 2.53125 0 2.03125 -0.21875 C 1.53125 -0.4375 1.144531 -0.738281 0.875 -1.125 C 0.601562 -1.507812 0.46875 -1.945312 0.46875 -2.4375 L 1.578125 -2.4375 C 1.578125 -1.925781 1.765625 -1.523438 2.140625 -1.234375 C 2.515625 -0.941406 3.015625 -0.796875 3.640625 -0.796875 C 4.222656 -0.796875 4.671875 -0.910156 4.984375 -1.140625 C 5.296875 -1.378906 5.453125 -1.703125 5.453125 -2.109375 C 5.453125 -2.523438 5.304688 -2.847656 5.015625 -3.078125 C 4.722656 -3.304688 4.203125 -3.53125 3.453125 -3.75 Z M 3.453125 -3.75 "/></g></g><g style="fill:#161718;fill-opacity:1;"><g transform="translate(144.598619, 56.935058)"><path style="stroke:none" d="M 7.4375 -3.921875 C 7.4375 -3.097656 7.296875 -2.378906 7.015625 -1.765625 C 6.742188 -1.160156 6.351562 -0.695312 5.84375 -0.375 C 5.332031 -0.0507812 4.738281 0.109375 4.0625 0.109375 C 3.40625 0.109375 2.820312 -0.0507812 2.3125 -0.375 C 1.800781 -0.695312 1.398438 -1.160156 1.109375 -1.765625 C 0.828125 -2.367188 0.6875 -3.066406 0.6875 -3.859375 L 0.6875 -4.453125 C 0.6875 -5.265625 0.820312 -5.976562 1.09375 -6.59375 C 1.375 -7.21875 1.769531 -7.691406 2.28125 -8.015625 C 2.800781 -8.347656 3.394531 -8.515625 4.0625 -8.515625 C 4.726562 -8.515625 5.316406 -8.347656 5.828125 -8.015625 C 6.347656 -7.691406 6.742188 -7.222656 7.015625 -6.609375 C 7.296875 -5.992188 7.4375 -5.273438 7.4375 -4.453125 Z M 6.328125 -4.46875 C 6.328125 -5.46875 6.128906 -6.234375 5.734375 -6.765625 C 5.335938 -7.296875 4.78125 -7.5625 4.0625 -7.5625 C 3.351562 -7.5625 2.796875 -7.296875 2.390625 -6.765625 C 1.992188 -6.234375 1.789062 -5.492188 1.78125 -4.546875 L 1.78125 -3.921875 C 1.78125 -2.960938 1.984375 -2.207031 2.390625 -1.65625 C 2.796875 -1.101562 3.351562 -0.828125 4.0625 -0.828125 C 4.78125 -0.828125 5.332031 -1.085938 5.71875 -1.609375 C 6.113281 -2.128906 6.316406 -2.875 6.328125 -3.84375 Z M 6.328125 -4.46875 "/></g></g><g style="fill:#161718;fill-opacity:1;"><g transform="translate(155.888713, 56.935058)"><path style="stroke:none" d="M 2.09375 -0.90625 L 6.0625 -0.90625 L 6.0625 0 L 0.96875 0 L 0.96875 -8.390625 L 2.09375 -8.390625 Z M 2.09375 -0.90625 "/></g></g><g style="fill:#161718;fill-opacity:1;"><g transform="translate(165.413821, 56.935058)"><path style="stroke:none" d="M 6.890625 -8.390625 L 6.890625 -2.6875 C 6.878906 -1.894531 6.628906 -1.242188 6.140625 -0.734375 C 5.648438 -0.234375 4.976562 0.046875 4.125 0.109375 L 3.828125 0.109375 C 2.910156 0.109375 2.175781 -0.132812 1.625 -0.625 C 1.082031 -1.125 0.8125 -1.804688 0.8125 -2.671875 L 0.8125 -8.390625 L 1.90625 -8.390625 L 1.90625 -2.703125 C 1.90625 -2.097656 2.070312 -1.628906 2.40625 -1.296875 C 2.738281 -0.960938 3.210938 -0.796875 3.828125 -0.796875 C 4.460938 -0.796875 4.945312 -0.960938 5.28125 -1.296875 C 5.613281 -1.628906 5.78125 -2.097656 5.78125 -2.703125 L 5.78125 -8.390625 Z M 6.890625 -8.390625 "/></g></g><g style="fill:#161718;fill-opacity:1;"><g transform="translate(176.242481, 56.935058)"><path style="stroke:none" d="M 6.78125 -7.484375 L 4.078125 -7.484375 L 4.078125 0 L 2.96875 0 L 2.96875 -7.484375 L 0.28125 -7.484375 L 0.28125 -8.390625 L 6.78125 -8.390625 Z M 6.78125 -7.484375 "/></g></g><g style="fill:#161718;fill-opacity:1;"><g transform="translate(186.45974, 56.935058)"><path style="stroke:none" d="M 2.15625 0 L 1.0625 0 L 1.0625 -8.390625 L 2.15625 -8.390625 Z M 2.15625 0 "/></g></g><g style="fill:#161718;fill-opacity:1;"><g transform="translate(192.841326, 56.935058)"><path style="stroke:none" d="M 7.4375 -3.921875 C 7.4375 -3.097656 7.296875 -2.378906 7.015625 -1.765625 C 6.742188 -1.160156 6.351562 -0.695312 5.84375 -0.375 C 5.332031 -0.0507812 4.738281 0.109375 4.0625 0.109375 C 3.40625 0.109375 2.820312 -0.0507812 2.3125 -0.375 C 1.800781 -0.695312 1.398438 -1.160156 1.109375 -1.765625 C 0.828125 -2.367188 0.6875 -3.066406 0.6875 -3.859375 L 0.6875 -4.453125 C 0.6875 -5.265625 0.820312 -5.976562 1.09375 -6.59375 C 1.375 -7.21875 1.769531 -7.691406 2.28125 -8.015625 C 2.800781 -8.347656 3.394531 -8.515625 4.0625 -8.515625 C 4.726562 -8.515625 5.316406 -8.347656 5.828125 -8.015625 C 6.347656 -7.691406 6.742188 -7.222656 7.015625 -6.609375 C 7.296875 -5.992188 7.4375 -5.273438 7.4375 -4.453125 Z M 6.328125 -4.46875 C 6.328125 -5.46875 6.128906 -6.234375 5.734375 -6.765625 C 5.335938 -7.296875 4.78125 -7.5625 4.0625 -7.5625 C 3.351562 -7.5625 2.796875 -7.296875 2.390625 -6.765625 C 1.992188 -6.234375 1.789062 -5.492188 1.78125 -4.546875 L 1.78125 -3.921875 C 1.78125 -2.960938 1.984375 -2.207031 2.390625 -1.65625 C 2.796875 -1.101562 3.351562 -0.828125 4.0625 -0.828125 C 4.78125 -0.828125 5.332031 -1.085938 5.71875 -1.609375 C 6.113281 -2.128906 6.316406 -2.875 6.328125 -3.84375 Z M 6.328125 -4.46875 "/></g></g><g style="fill:#161718;fill-opacity:1;"><g transform="translate(204.131421, 56.935058)"><path style="stroke:none" d="M 7.421875 0 L 6.3125 0 L 2.09375 -6.46875 L 2.09375 0 L 0.96875 0 L 0.96875 -8.390625 L 2.09375 -8.390625 L 6.328125 -1.890625 L 6.328125 -8.390625 L 7.421875 -8.390625 Z M 7.421875 0 "/></g></g><g style="fill:#161718;fill-opacity:1;"><g transform="translate(215.721447, 56.935058)"><path style="stroke:none" d="M 3.453125 -3.75 C 2.503906 -4.019531 1.8125 -4.351562 1.375 -4.75 C 0.945312 -5.144531 0.734375 -5.632812 0.734375 -6.21875 C 0.734375 -6.882812 0.992188 -7.429688 1.515625 -7.859375 C 2.046875 -8.296875 2.734375 -8.515625 3.578125 -8.515625 C 4.160156 -8.515625 4.675781 -8.398438 5.125 -8.171875 C 5.570312 -7.953125 5.921875 -7.644531 6.171875 -7.25 C 6.421875 -6.863281 6.546875 -6.4375 6.546875 -5.96875 L 5.4375 -5.96875 C 5.4375 -6.476562 5.273438 -6.878906 4.953125 -7.171875 C 4.628906 -7.460938 4.171875 -7.609375 3.578125 -7.609375 C 3.035156 -7.609375 2.609375 -7.484375 2.296875 -7.234375 C 1.992188 -6.992188 1.84375 -6.660156 1.84375 -6.234375 C 1.84375 -5.898438 1.988281 -5.613281 2.28125 -5.375 C 2.570312 -5.132812 3.066406 -4.914062 3.765625 -4.71875 C 4.460938 -4.53125 5.007812 -4.316406 5.40625 -4.078125 C 5.800781 -3.835938 6.09375 -3.5625 6.28125 -3.25 C 6.46875 -2.9375 6.5625 -2.566406 6.5625 -2.140625 C 6.5625 -1.453125 6.296875 -0.90625 5.765625 -0.5 C 5.234375 -0.09375 4.523438 0.109375 3.640625 0.109375 C 3.066406 0.109375 2.53125 0 2.03125 -0.21875 C 1.53125 -0.4375 1.144531 -0.738281 0.875 -1.125 C 0.601562 -1.507812 0.46875 -1.945312 0.46875 -2.4375 L 1.578125 -2.4375 C 1.578125 -1.925781 1.765625 -1.523438 2.140625 -1.234375 C 2.515625 -0.941406 3.015625 -0.796875 3.640625 -0.796875 C 4.222656 -0.796875 4.671875 -0.910156 4.984375 -1.140625 C 5.296875 -1.378906 5.453125 -1.703125 5.453125 -2.109375 C 5.453125 -2.523438 5.304688 -2.847656 5.015625 -3.078125 C 4.722656 -3.304688 4.203125 -3.53125 3.453125 -3.75 Z M 3.453125 -3.75 "/></g></g></g></svg>